<svg width="78" height="82" viewBox="0 0 78 82" fill="none" xmlns="http://www.w3.org/2000/svg">
    <g clip-path="url(#clip0_1415_1745)">
        <path
            d="M55.2742 0.375191H62.9138C64.6743 0.375191 66.2393 1.36768 66.9802 2.94355L67.1169 3.26582V3.26679C67.7542 4.9184 67.3741 6.72863 66.1716 7.98261L65.9207 8.22578L65.9197 8.22675C65.8675 8.27374 65.8158 8.32329 65.7664 8.37031C65.716 8.41813 65.6675 8.46318 65.6199 8.50605L65.2332 8.85468H73.0935C73.1903 8.85468 73.2866 8.85753 73.3816 8.86347L73.6638 8.89277H73.6667C75.1841 9.10277 76.4802 10.1335 76.9949 11.6008L77.0222 11.6779L77.0378 11.6857C77.5445 13.2131 77.1155 14.8914 75.9617 15.9943L75.7175 16.2102C73.1327 18.3139 71.0403 20.6853 69.4841 23.2756L69.1804 23.7961L69.1794 23.7971C67.7218 26.3767 67.068 28.6501 66.1111 32.5373L65.6794 34.3078C64.9708 37.2124 64.1178 40.7273 62.7976 45.423L62.2019 47.509C61.7246 49.1412 60.3517 50.2751 58.7019 50.4562L58.5574 50.4719L58.5281 50.6144C57.5345 55.463 55.2415 60.0005 51.8718 62.965L51.7283 63.091L51.8474 63.2404C53.4008 65.1798 54.2501 67.6815 54.1394 70.4426L54.1042 70.9982C53.6811 75.9065 49.898 80.9385 43.4685 81.1252H13.949L13.9343 81.1271C13.7414 81.1561 13.5411 81.175 13.3435 81.175H5.70386C3.94349 81.175 2.37837 80.1824 1.63745 78.6066L1.50073 78.2834L1.38647 77.9504C0.91762 76.3921 1.32358 74.7369 2.44604 73.5666L2.698 73.3234C6.58155 69.8213 9.28897 64.1828 9.52808 59.135L9.5437 58.6477V36.3049C9.54373 29.6083 12.1486 22.6387 16.7556 18.5852L16.8992 18.4592L16.78 18.3098C15.2268 16.3704 14.3774 13.8686 14.488 11.1076L14.5232 10.5519C14.9234 5.79755 18.4958 0.92555 24.574 0.456245L25.1697 0.424995H54.6687L54.6833 0.423042C54.8763 0.394106 55.0765 0.375191 55.2742 0.375191ZM55.2644 1.94453C55.1147 1.94453 54.9586 1.96584 54.8152 1.99531H25.2488C19.6446 2.13404 16.6426 6.31726 16.1453 10.2756L16.1042 10.6584C15.8764 13.4128 16.8418 16.5512 19.322 18.5881C14.0918 21.996 11.1337 29.3169 11.1335 36.2746V58.6555C11.0461 64.0522 8.25315 70.1956 4.15112 74.1144L3.74976 74.4865C2.90503 75.2508 2.58741 76.4038 2.90503 77.4738L2.97729 77.6857V77.6867C3.41693 78.8233 4.48102 79.5549 5.69409 79.5549H13.3337C13.4913 79.5549 13.6368 79.5338 13.7771 79.5051H43.3591C48.9636 79.3663 51.9656 75.1823 52.4626 71.2238L52.5037 70.842V70.841C52.7314 68.0864 51.7657 64.948 49.2849 62.9113C53.656 60.0537 56.4313 54.4705 57.2244 48.6574C57.5354 48.7939 57.8752 48.8752 58.2244 48.8752C59.3634 48.875 60.3412 48.136 60.656 47.0412C61.9019 42.748 62.7705 39.3604 63.4646 36.5471L64.1082 33.9123C65.253 29.1922 65.909 26.4783 67.448 23.5773L67.7683 22.9934C69.4448 20.0273 71.7679 17.3258 74.6902 14.9602L74.698 14.9543L74.7156 14.9367L74.7146 14.9357C75.4874 14.3026 75.8072 13.2709 75.5515 12.3186L75.4929 12.1281H75.4919C75.1664 11.2167 74.3535 10.5758 73.4197 10.4562L73.4187 10.4572C73.3011 10.4355 73.1866 10.4348 73.0935 10.4348H61.8308C62.608 9.34064 63.4695 8.32541 64.4041 7.42695L64.8474 7.01386L64.8484 7.01289C65.6927 6.24871 66.0105 5.09632 65.6931 4.02656L65.6208 3.81367V3.81269L65.531 3.60468C65.0475 2.58774 64.0413 1.94457 62.9041 1.94453H55.2644Z"
            fill="url(#paint0_linear_1415_1745)" fill-opacity="0.5" stroke="url(#paint1_linear_1415_1745)"
            stroke-width="0.4" />
        <path
            d="M62.9138 4.35519C63.345 4.35519 63.563 4.85215 63.3083 5.16574L63.2507 5.22629H63.2498C58.7279 9.30869 55.3982 15.8942 55.0935 22.2019L55.074 22.8112V45.2253C55.0739 49.0131 54.0395 53.2389 52.0369 56.5603C50.0364 59.8779 47.0861 62.2704 43.2537 62.4646H27.2341C27.0392 62.4646 26.9099 62.613 26.8806 62.7751L26.8738 62.8454L26.8806 62.9148C26.9099 63.0769 27.0391 63.2253 27.2341 63.2253H43.2537C43.7298 63.2253 44.1975 63.2741 44.6667 63.362V63.3611C48.7013 64.158 50.4164 67.5333 50.0925 70.7546C49.7683 73.9775 47.4056 77.008 43.2888 77.1052H13.1238V77.155H5.68433C5.2531 77.155 5.03515 76.658 5.28979 76.3445L5.34741 76.2839H5.34839C9.87023 72.2016 13.1989 65.6159 13.5037 59.3083L13.5242 58.698V36.2849C13.5242 32.4971 14.5586 28.2714 16.5613 24.9499C18.5008 21.7333 21.3331 19.3859 24.9968 19.0691L25.3542 19.0446H41.364C41.5868 19.0446 41.7244 18.8515 41.7244 18.6648C41.7243 18.4781 41.5867 18.2849 41.364 18.2849H25.3435C24.8674 18.2849 24.3996 18.2361 23.9304 18.1482H23.9294C19.896 17.3505 18.1816 13.9755 18.5056 10.7546C18.8199 7.63269 21.0463 4.69188 24.9275 4.42258L25.3083 4.405H55.4744V4.35519H62.9138Z"
            fill="url(#paint2_linear_1415_1745)" fill-opacity="0.5" stroke="url(#paint3_linear_1415_1745)"
            stroke-width="0.4" />
        <path
            d="M61.1735 12.8452H72.9801L72.9899 12.8647H73.1139C73.228 12.8647 73.2862 12.9887 73.2301 13.0747L73.1989 13.1089L73.1979 13.1098C69.5016 16.099 67.2969 19.0813 65.9479 21.3774L65.6901 21.8266C64.1118 24.6151 63.3462 27.068 62.441 30.6636C61.6491 33.8092 60.7495 37.8319 59.1041 43.7397L58.3522 46.3891C58.3391 46.4343 58.316 46.4575 58.2936 46.4702C58.2682 46.4845 58.2332 46.4908 58.1969 46.4848C58.1608 46.4789 58.1316 46.4619 58.1129 46.4409C58.0966 46.4225 58.0815 46.3944 58.0836 46.3462C58.104 45.9699 58.1041 45.594 58.1041 45.2348V22.8481C58.1535 19.5978 59.2407 16.0698 60.9879 12.9526L60.8141 12.855L60.9889 12.9526L60.9899 12.9497C61.0231 12.8881 61.0932 12.8454 61.1735 12.8452Z"
            fill="url(#paint4_linear_1415_1745)" fill-opacity="0.5" stroke="url(#paint5_linear_1415_1745)"
            stroke-width="0.4" />
    </g>
    <defs>
        <linearGradient id="paint0_linear_1415_1745" x1="1.77928" y1="0.889255" x2="69.9802" y2="65.1049"
            gradientUnits="userSpaceOnUse">
            <stop offset="0.301666" stop-color="white" stop-opacity="0" />
            <stop offset="0.796666" stop-color="white" />
        </linearGradient>
        <linearGradient id="paint1_linear_1415_1745" x1="66.5819" y1="70.5466" x2="8.99975" y2="7.00319"
            gradientUnits="userSpaceOnUse">
            <stop offset="0.206666" stop-color="white" />
            <stop offset="0.716666" stop-color="white" stop-opacity="0" />
        </linearGradient>
        <linearGradient id="paint2_linear_1415_1745" x1="5.58183" y1="4.79889" x2="65.6901" y2="52.949"
            gradientUnits="userSpaceOnUse">
            <stop offset="0.301666" stop-color="white" stop-opacity="0" />
            <stop offset="0.796666" stop-color="white" />
        </linearGradient>
        <linearGradient id="paint3_linear_1415_1745" x1="55.2823" y1="67.5934" x2="3.22488" y2="18.7194"
            gradientUnits="userSpaceOnUse">
            <stop offset="0.206666" stop-color="white" />
            <stop offset="0.716666" stop-color="white" stop-opacity="0" />
        </linearGradient>
        <linearGradient id="paint4_linear_1415_1745" x1="58.0432" y1="12.9444" x2="79.7113" y2="22.854"
            gradientUnits="userSpaceOnUse">
            <stop offset="0.301666" stop-color="white" stop-opacity="0" />
            <stop offset="0.796666" stop-color="white" />
        </linearGradient>
        <linearGradient id="paint5_linear_1415_1745" x1="71.239" y1="42.1476" x2="51.0381" y2="31.3199"
            gradientUnits="userSpaceOnUse">
            <stop offset="0.206666" stop-color="white" />
            <stop offset="0.716666" stop-color="white" stop-opacity="0" />
        </linearGradient>
        <clipPath id="clip0_1415_1745">
            <rect width="76.45" height="81.21" fill="white" transform="translate(0.983948 0.154999)" />
        </clipPath>
    </defs>
</svg>