<svg width="47" height="83" viewBox="0 0 47 83" fill="none" xmlns="http://www.w3.org/2000/svg">
    <g style="mix-blend-mode:overlay">
        <path
            d="M29.6073 3.92178C28.4973 2.04178 26.5073 0.931784 24.3173 0.981784C22.1773 1.02178 20.2473 2.29178 19.1573 4.14178L14.5073 12.0018L14.6573 12.2618L16.6973 12.2218L20.9073 5.10178C21.5973 3.94178 22.7673 3.10178 24.1073 2.99178C25.6673 2.86178 27.1073 3.61178 27.8873 4.94178L36.9973 20.3418C37.4173 19.9718 37.9273 19.7018 38.5073 19.5718C38.6173 19.5518 38.7273 19.5318 38.8273 19.5218L29.6073 3.92178ZM45.2273 30.3318L44.0073 28.2718C44.0073 28.2718 43.9573 28.3018 43.9273 28.3118C43.9873 29.2018 43.6873 30.0618 43.1473 30.7318L43.5073 31.3518C44.2973 32.6918 44.2573 34.3218 43.3673 35.6418C42.5973 36.7718 41.2573 37.3818 39.8873 37.3818H37.6173C36.7273 37.3818 36.0073 38.1018 36.0073 38.9918V70.4618C36.3973 70.3518 36.7973 70.3018 37.2073 70.3018C37.4773 70.3018 37.7373 70.3218 38.0073 70.3618V39.9918C38.0073 39.6618 38.2773 39.3818 38.6173 39.3818H39.8373C41.3573 39.3818 42.8573 38.9118 43.9973 37.9118C46.2473 35.9418 46.6573 32.7418 45.2273 30.3318ZM31.7173 80.5018H16.8873C14.6773 80.5018 12.8873 78.7118 12.8873 76.5018V38.9918C12.8873 38.1018 12.1673 37.3818 11.2773 37.3818H9.00735C7.63735 37.3818 6.29735 36.7718 5.52735 35.6418C4.63735 34.3218 4.59735 32.6918 5.38735 31.3518L8.67735 25.7818L7.86735 24.3918L7.16735 24.4118L3.66735 30.3318C2.23735 32.7418 2.63735 35.9418 4.89735 37.9118C6.02735 38.9118 7.53735 39.3818 9.04735 39.3818H10.2773C10.6173 39.3818 10.8873 39.6618 10.8873 39.9918V76.5018C10.8873 79.8118 13.5673 82.5018 16.8873 82.5018H32.0073C32.4473 82.5018 32.8773 82.4518 33.2873 82.3618C32.6073 81.8818 32.0673 81.2418 31.7173 80.5018Z"
            fill="#3060FF" />
        <path
            d="M40.0573 35.3818H36.0073C34.8973 35.3818 34.0073 36.2818 34.0073 37.3818V71.4918C32.3673 71.8218 30.9873 72.9918 30.4273 74.6218C29.9773 75.9418 30.1173 77.3418 30.7673 78.5018H16.8873C15.7773 78.5018 14.8873 77.6018 14.8873 76.5018V37.3818C14.8873 36.2818 13.9873 35.3818 12.8873 35.3818H8.82729C7.27729 35.3818 6.31729 33.7018 7.10729 32.3618L9.82729 27.7618L10.8873 29.5818C11.2873 30.2418 11.9073 30.7518 12.6173 31.0318C13.0373 31.2018 13.4773 31.2818 13.9173 31.2818C14.2473 31.2818 14.5673 31.2318 14.8773 31.1518C15.6173 30.9418 16.2873 30.4818 16.7473 29.8718C17.2073 29.2618 17.4573 28.5018 17.4573 27.6718L17.3273 21.7218L22.5073 18.7018C23.1673 18.3018 23.6873 17.6918 23.9673 16.9718C24.2573 16.2518 24.2973 15.4518 24.0873 14.7118C23.8773 13.9618 23.4173 13.3018 22.8073 12.8418C22.1973 12.3818 21.4373 12.1318 20.6073 12.1318L19.0573 12.1618L22.7273 5.96181C23.4973 4.65181 25.3973 4.65181 26.1673 5.96181L35.8673 22.3518C35.8273 22.6118 35.8073 22.8818 35.8273 23.1518C34.2773 23.7618 33.3473 25.4218 33.7273 27.1018C34.0673 28.6618 35.4773 29.7918 37.0773 29.7918C37.1473 29.7918 37.2273 29.7918 37.3073 29.7818C37.8073 31.0718 39.0873 31.9718 40.5073 31.9718C40.7573 31.9718 41.0073 31.9418 41.2473 31.8918C41.3273 31.8718 41.4073 31.8518 41.4773 31.8318L41.7873 32.3618C42.5673 33.7018 41.6073 35.3818 40.0573 35.3818Z"
            fill="#3060FF" />
        <path
            d="M40.9374 78.2618C41.3374 77.0918 40.9274 75.8418 39.9874 75.1318C40.0074 73.9618 39.2774 72.8518 38.1174 72.4518C36.9474 72.0518 35.6974 72.4618 34.9874 73.4018C33.8174 73.3818 32.7074 74.1118 32.3074 75.2718C31.9074 76.4418 32.3174 77.6918 33.2574 78.4018C33.2374 79.5718 33.9674 80.6818 35.1274 81.0818C36.2974 81.4818 37.5474 81.0718 38.2574 80.1318C39.4274 80.1518 40.5374 79.4218 40.9374 78.2618Z"
            fill="#3060FF" />
        <path
            d="M40.6573 22.6218C40.4873 21.8518 39.7173 21.3618 38.9473 21.5318C38.1773 21.7018 37.6873 22.4718 37.8573 23.2418L38.1673 24.6418L36.7673 24.9518C35.9973 25.1218 35.5073 25.8918 35.6773 26.6618C35.8473 27.4318 36.6173 27.9218 37.3873 27.7518L38.7873 27.4418L39.0973 28.8418C39.2673 29.6118 40.0373 30.1018 40.8073 29.9318C41.5773 29.7618 42.0673 28.9918 41.8973 28.2218L41.5873 26.8218L42.9873 26.5118C43.7573 26.3418 44.2473 25.5718 44.0773 24.8018C43.9073 24.0318 43.1373 23.5418 42.3673 23.7118L40.9673 24.0218L40.6573 22.6218Z"
            fill="#3060FF" />
        <path fill-rule="evenodd" clip-rule="evenodd"
            d="M7.37748 7.99184C7.57748 7.72184 7.86748 7.53184 8.18748 7.43184C8.50748 7.33184 8.85748 7.36184 9.16748 7.48184C9.47748 7.60184 9.74748 7.83184 9.91748 8.11184V8.13184L13.2075 13.7618C13.2975 13.9218 13.4375 14.0518 13.5975 14.1418C13.7575 14.2318 13.9375 14.2718 14.1275 14.2718L20.6475 14.1218H20.6675C21.0075 14.1218 21.3375 14.2318 21.6075 14.4318C21.8775 14.6318 22.0775 14.9218 22.1675 15.2418C22.2575 15.5618 22.2375 15.9118 22.1175 16.2318C21.9975 16.5418 21.7675 16.8118 21.4775 16.9818H21.4675L15.8375 20.2718C15.6775 20.3618 15.5475 20.5018 15.4575 20.6618C15.3675 20.8218 15.3175 21.0018 15.3275 21.1918L15.4775 27.7118V27.7318C15.4775 28.0718 15.3675 28.3918 15.1675 28.6618C14.9675 28.9318 14.6775 29.1218 14.3575 29.2218C14.0375 29.3218 13.6875 29.2918 13.3775 29.1718C13.0675 29.0518 12.7975 28.8218 12.6275 28.5418V28.5218L9.33748 22.8918C9.24748 22.7318 9.10748 22.6018 8.94748 22.5118C8.78748 22.4218 8.60748 22.3718 8.41748 22.3818L1.89748 22.5318H1.87748C1.53748 22.5318 1.21748 22.4218 0.947484 22.2218C0.677484 22.0218 0.487484 21.7318 0.397484 21.4118C0.307484 21.0918 0.327484 20.7418 0.447484 20.4318C0.567484 20.1218 0.787484 19.8518 1.07748 19.6818H1.09748L6.72748 16.3818C6.88748 16.2918 7.01748 16.1518 7.10748 15.9918C7.19748 15.8318 7.24748 15.6518 7.23748 15.4618L7.08748 8.94184V8.92184C7.08748 8.58184 7.19748 8.26184 7.39748 7.99184H7.37748Z"
            fill="#3060FF" />
    </g>
</svg>