<svg width="101" height="101" viewBox="0 0 101 101" fill="none" xmlns="http://www.w3.org/2000/svg">
    <path
        d="M36.8201 33.5124L36.8202 33.512L44.0095 5.63194L44.0105 5.62796L44.0326 5.54587C44.0328 5.54526 44.0329 5.54464 44.0331 5.54402C44.4108 4.19596 45.2189 3.00833 46.3344 2.16221C47.4503 1.31571 48.8125 0.85752 50.2131 0.85752C51.6138 0.85752 52.976 1.31571 54.0919 2.1622C55.2073 3.00829 56.0154 4.19582 56.3931 5.54383C56.3933 5.54451 56.3935 5.54519 56.3937 5.54587L56.4159 5.62858L56.417 5.63257L63.6018 33.5131L63.6018 33.5132C63.8226 34.369 64.2686 35.1499 64.8935 35.7748C65.5181 36.3994 66.2986 36.8453 67.1538 37.0662L67.154 37.0662L95.0365 44.2515L95.0397 44.2524L95.1076 44.2705C95.1081 44.2706 95.1086 44.2708 95.1091 44.2709C96.4626 44.6446 97.6563 45.4519 98.507 46.5691C99.3581 47.6867 99.819 49.0527 99.819 50.4574C99.819 51.8622 99.3581 53.2282 98.507 54.3458C97.6563 55.463 96.4626 56.2703 95.1091 56.644C95.1086 56.6441 95.1081 56.6443 95.1076 56.6444L95.0397 56.6625L95.0365 56.6634L67.1552 63.8484L67.1551 63.8484C66.2994 64.0692 65.5184 64.5152 64.8935 65.1401C64.2686 65.765 63.8226 66.5459 63.6018 67.4016L63.9853 67.5006L63.6018 67.4017L56.4123 95.283L56.4112 95.2869L56.3891 95.369C56.389 95.3697 56.3888 95.3704 56.3886 95.3711C56.0109 96.7191 55.2027 97.9066 54.0874 98.7527C52.9715 99.5992 51.6093 100.057 50.2086 100.057C48.8079 100.057 47.4457 99.5992 46.3298 98.7527C45.2145 97.9066 44.4064 96.7191 44.0286 95.3712C44.0284 95.3705 44.0282 95.3698 44.028 95.369L44.0058 95.2863L44.0048 95.2823L36.8199 67.4017L36.8199 67.4016C36.599 66.5464 36.1529 65.7648 35.5282 65.1401C34.9033 64.5152 34.1224 64.0692 33.2667 63.8484L33.2666 63.8484L5.3861 56.659L5.38138 56.6578L5.28458 56.6316C5.28382 56.6314 5.28307 56.6311 5.28231 56.6309C3.93972 56.2493 2.75809 55.4404 1.91655 54.3268C1.07456 53.2126 0.618994 51.854 0.618994 50.4574C0.618994 49.0608 1.07456 47.7023 1.91655 46.5881C2.75808 45.4745 3.93969 44.6656 5.28226 44.284C5.28303 44.2837 5.28381 44.2835 5.28458 44.2833L5.38077 44.2573L5.38541 44.256L33.2664 37.062C34.1217 36.8415 34.9033 36.3956 35.5282 35.7711C36.1528 35.147 36.5989 34.3671 36.8201 33.5124ZM92.2733 8.00324V8.40324H92.6733H96.4461C98.3089 8.40324 99.819 9.91334 99.819 11.7761C99.819 13.6389 98.3089 15.149 96.4461 15.149H92.6733H92.2733V15.549V19.3218C92.2733 21.1846 90.7632 22.6947 88.9004 22.6947C87.0376 22.6947 85.5275 21.1846 85.5275 19.3218V15.549V15.149H85.1275H81.3547C79.4919 15.149 77.9818 13.6389 77.9818 11.7761C77.9818 9.91334 79.4919 8.40324 81.3547 8.40324H85.1275H85.5275V8.00324V4.23038C85.5275 2.36759 87.0376 0.85752 88.9004 0.85752C90.7632 0.85752 92.2733 2.36759 92.2733 4.23038V8.00324ZM19.7972 80.4792V80.8792H20.1972C21.9265 80.8792 23.3284 82.281 23.3284 84.0103C23.3284 85.7396 21.9265 87.1415 20.1972 87.1415H19.7972V87.5415C19.7972 89.2708 18.3954 90.6726 16.6661 90.6726C14.9368 90.6726 13.5349 89.2708 13.5349 87.5415V87.1415H13.1349C11.4056 87.1415 10.0037 85.7396 10.0037 84.0103C10.0037 82.281 11.4056 80.8792 13.1349 80.8792H13.5349V80.4792C13.5349 78.7499 14.9368 77.348 16.6661 77.348C18.3954 77.348 19.7972 78.7499 19.7972 80.4792Z"
        fill="url(#paint0_linear_974_1976)" fill-opacity="0.5" stroke="url(#paint1_linear_974_1976)"
        stroke-width="0.5" />
    <defs>
        <linearGradient id="paint0_linear_974_1976" x1="1.24496" y1="1.33715" x2="85.3885" y2="85.4807"
            gradientUnits="userSpaceOnUse">
            <stop offset="0.3" stop-color="white" stop-opacity="0" />
            <stop offset="0.8" stop-color="white" />
        </linearGradient>
        <linearGradient id="paint1_linear_974_1976" x1="86.004" y1="87.1219" x2="15.6339" y2="4.64745"
            gradientUnits="userSpaceOnUse">
            <stop offset="0.2899" stop-color="white" />
            <stop offset="0.55" stop-color="white" stop-opacity="0" />
        </linearGradient>
    </defs>
</svg>