<svg width="148" height="81" viewBox="0 0 148 81" fill="none" xmlns="http://www.w3.org/2000/svg">
    <path d="M80.5201 0.25708H81.3201V1.05708V79.4571V80.2571H80.5201V79.4571V1.05708V0.25708Z" fill="#171717" />
    <path d="M93.7201 0.25708H94.5201V1.05708V79.4571V80.2571H93.7201V79.4571V1.05708V0.25708Z" fill="#171717" />
    <path d="M106.92 0.25708H107.72V1.05708V79.4571V80.2571H106.92V79.4571V1.05708V0.25708Z" fill="#171717" />
    <path d="M120.12 0.25708H120.92V1.05708V79.4571V80.2571H120.12V79.4571V1.05708V0.25708Z" fill="#171717" />
    <path d="M133.32 0.25708H134.12V1.05708V79.4571V80.2571H133.32V79.4571V1.05708V0.25708Z" fill="#171717" />
    <path d="M147.32 13.4571V14.2571H146.52L68.1201 14.2571H67.3201V13.4571H68.1201L146.52 13.4571H147.32Z"
        fill="#171717" />
    <path d="M147.32 26.6571V27.4571H146.52L68.1201 27.4571H67.3201V26.6571H68.1201L146.52 26.6571H147.32Z"
        fill="#171717" />
    <path d="M147.32 39.8571V40.6571H146.52L68.1201 40.6571H67.3201V39.8571H68.1201L146.52 39.8571H147.32Z"
        fill="#171717" />
    <path d="M147.32 53.0571V53.8571H146.52L68.1201 53.8571H67.3201V53.0571H68.1201L146.52 53.0571H147.32Z"
        fill="#171717" />
    <path d="M147.32 66.2571V67.0571H146.52L68.1201 67.0571H67.3201V66.2571H68.1201L146.52 66.2571H147.32Z"
        fill="#171717" />
    <path fill-rule="evenodd" clip-rule="evenodd"
        d="M134.12 0.25708V1.05708H133.32V0.25708H134.12ZM120.92 0.25708V1.05708H120.12V0.25708H120.92ZM107.72 0.25708V1.05708H106.92V0.25708H107.72ZM94.5201 0.25708V1.05708H93.7201V0.25708H94.5201ZM81.3201 0.25708V1.05708H80.5201V0.25708H81.3201ZM68.1201 13.4571H67.3201V14.2571H68.1201V13.4571ZM68.1201 26.6571H67.3201V27.4571H68.1201V26.6571ZM68.1201 39.8571H67.3201V40.6571H68.1201V39.8571ZM68.1201 53.0571H67.3201V53.8571H68.1201V53.0571ZM67.3201 67.0571V66.2571H68.1201V67.0571H67.3201ZM146.52 14.2571V13.4571H147.32V14.2571H146.52ZM147.32 26.6571H146.52V27.4571H147.32V26.6571ZM146.52 40.6571V39.8571H147.32V40.6571H146.52ZM147.32 53.0571H146.52V53.8571H147.32V53.0571ZM146.52 67.0571V66.2571H147.32V67.0571H146.52ZM133.32 80.2571H134.12V79.4571H133.32V80.2571ZM120.92 80.2571H120.12V79.4571H120.92V80.2571ZM106.92 80.2571H107.72V79.4571H106.92V80.2571ZM94.5201 80.2571H93.7201V79.4571H94.5201V80.2571ZM80.5201 80.2571H81.3201V79.4571H80.5201V80.2571Z"
        fill="#171717" />
    <path d="M13.722 0.25708H14.522V1.05708V79.4571V80.2571H13.722V79.4571V1.05708V0.25708Z" fill="#171717" />
    <path d="M26.922 0.25708H27.722V1.05708V79.4571V80.2571H26.922V79.4571V1.05708V0.25708Z" fill="#171717" />
    <path d="M40.122 0.25708H40.922V1.05708V79.4571V80.2571H40.122V79.4571V1.05708V0.25708Z" fill="#171717" />
    <path d="M53.322 0.25708H54.122V1.05708V79.4571V80.2571H53.322V79.4571V1.05708V0.25708Z" fill="#171717" />
    <path
        d="M66.522 0.25708H67.322V1.05708V13.4571V14.2571V26.6571V27.4571V39.8571V40.6571V53.0571V53.8571V66.2571V67.0571V79.4571V80.2571H66.522V79.4571V1.05708V0.25708Z"
        fill="#171717" />
    <path fill-rule="evenodd" clip-rule="evenodd"
        d="M67.322 0.25708V1.05708H66.522V0.25708H67.322ZM54.122 0.25708V1.05708H53.322V0.25708H54.122ZM40.922 0.25708V1.05708H40.122V0.25708H40.922ZM27.722 0.25708V1.05708H26.922V0.25708H27.722ZM14.522 0.25708V1.05708H13.722V0.25708H14.522ZM0.521976 13.4571L0.521976 14.2571H1.32197L67.322 14.2571V13.4571L1.32197 13.4571H0.521976ZM0.521975 26.6571L0.521975 27.4571H1.32197L67.322 27.4571V26.6571L1.32197 26.6571H0.521975ZM0.521974 40.6571H1.32197L67.322 40.6571V39.8571L1.32197 39.8571H0.521974L0.521974 40.6571ZM0.521974 53.8571H1.32197L67.322 53.8571V53.0571L1.32197 53.0571H0.521974L0.521974 53.8571ZM0.521973 66.2571H1.32197L67.322 66.2571V67.0571L1.32197 67.0571H0.521973L0.521973 66.2571ZM66.522 80.2571H67.322V79.4571H66.522V80.2571ZM54.122 80.2571H53.322V79.4571H54.122V80.2571ZM40.122 80.2571H40.922V79.4571H40.122V80.2571ZM27.722 80.2571H26.922V79.4571H27.722V80.2571ZM13.722 80.2571H14.522V79.4571H13.722V80.2571Z"
        fill="#171717" />
</svg>